<svg xmlns="http://www.w3.org/2000/svg" fill="none" viewBox="0 0 200 130" height="130" width="200">
<path fill="#A57C37" d="M139.963 2.78009C116.37 -1.92511 87.4413 -0.938536 61.6759 7.90268C30.7269 18.5273 17.9204 37.4999 21.6175 55.6756C23.6375 65.6551 36.5203 74.3446 51.4612 71.0433C56.7591 69.867 59.1984 66.2623 59.6939 65.6172C60.0751 65.086 59.389 64.3271 58.6648 64.9721C57.5595 65.9966 53.5575 70.8157 47.1923 68.3113C32.4801 62.5057 24.3998 31.3907 67.2787 13.1391C81.3049 7.18172 109.433 0.806941 139.811 6.61254C161.993 10.8624 172.78 24.3709 171.751 37.9173C169.654 66.2243 143.279 81.0229 120.715 80.7952C119.229 80.7952 117.895 80.7194 116.561 80.6814C114.16 80.6055 112.444 81.0609 111.873 81.0229C114.808 81.2126 117.742 81.1368 120.982 80.6055C133.484 78.4806 150.178 65.9208 156.009 46.8344C161.041 30.3662 152.922 19.6657 141.983 17.5028C111.797 11.5075 87.8606 52.64 74.6729 86.8285C63.1242 116.729 44.4481 128.682 29.1642 126.329C21.0839 125.077 15.5954 116.122 19.7499 107.167C21.7699 102.879 25.772 100.906 29.5453 100.982C31.108 100.982 30.9555 100.071 29.5453 99.654C21.5794 97.2255 13.7278 101.324 10.7548 106.901C7.40075 113.276 8.27738 121.89 18.4921 126.899C26.8392 131.035 42.9997 132.363 60.1132 122.345C82.029 109.52 99.3712 77.6837 115.799 40.9529C120.487 30.4421 129.672 18.2238 138.515 20.3107C146.519 22.208 146.405 35.1093 142.174 49.6803C138.019 64.0615 127.614 78.2529 113.931 79.7707C108.9 80.3399 107.909 78.5565 105.736 78.3668C104.517 78.2529 102.878 80.302 106.689 81.4403C114.846 83.9068 123.764 85.1969 141.259 82.4269C161.155 79.2395 186.387 61.3673 186.272 39.8525C186.234 31.3907 181.546 24.1432 175.105 18.1479C165.424 9.15486 151.131 5.05679 139.887 2.78009H139.963Z"></path>
</svg>
